<?xml version="1.0" encoding="UTF-8" ?>
<!DOCTYPE svg PUBLIC "-//W3C//DTD SVG 1.1//EN" "http://www.w3.org/Graphics/SVG/1.1/DTD/svg11.dtd">
<svg width="129pt" height="93pt" viewBox="0 0 129 93" version="1.1" xmlns="http://www.w3.org/2000/svg">
<g id="#ffffffff">
<path fill="#ffffff" opacity="1.00" d=" M 42.46 0.00 L 43.26 0.00 C 44.51 3.66 48.39 5.73 49.13 9.58 C 47.91 11.23 46.72 12.90 45.57 14.59 C 43.90 15.27 43.79 16.83 43.87 18.42 C 43.76 18.76 43.54 19.45 43.43 19.79 C 42.93 19.90 41.95 20.12 41.45 20.22 C 40.33 18.84 39.31 17.38 38.22 15.98 C 38.70 15.34 39.18 14.71 39.66 14.08 C 39.16 13.65 38.14 12.80 37.64 12.37 C 38.99 9.43 34.92 8.46 35.51 5.88 C 36.94 3.14 40.31 2.52 42.45 0.50 L 42.46 0.00 Z" />
<path fill="#ffffff" opacity="1.00" d=" M 58.06 3.40 C 59.74 3.13 61.38 2.68 62.97 2.05 C 63.58 2.74 64.20 3.44 64.81 4.14 C 63.92 3.88 62.14 3.35 61.26 3.09 C 61.37 3.88 61.58 5.45 61.69 6.24 C 60.32 5.52 59.19 4.44 58.06 3.40 Z" />
<path fill="#ffffff" opacity="1.00" d=" M 26.90 4.12 C 30.11 3.48 33.25 2.61 36.56 2.99 L 36.65 3.89 C 36.11 3.97 35.05 4.13 34.52 4.20 C 34.38 4.60 34.09 5.39 33.95 5.78 C 33.51 5.88 32.64 6.09 32.20 6.19 C 32.28 6.54 32.43 7.26 32.51 7.62 C 31.87 8.02 30.58 8.83 29.94 9.24 C 29.12 8.48 28.30 7.72 27.48 6.96 C 27.26 7.29 26.82 7.94 26.60 8.27 C 25.91 7.16 24.09 6.00 25.49 4.55 C 27.33 6.15 29.34 7.04 31.44 5.25 C 29.83 5.23 28.12 5.38 26.90 4.12 Z" />
<path fill="#ffffff" opacity="1.00" d=" M 89.30 6.59 C 89.65 6.18 90.37 5.36 90.73 4.95 C 91.71 5.40 92.68 5.86 93.66 6.31 C 93.72 6.76 93.84 7.64 93.89 8.08 C 96.73 9.04 99.71 9.46 102.55 10.42 C 102.74 10.13 103.12 9.55 103.31 9.27 C 107.60 10.79 111.94 12.49 116.59 12.03 C 116.59 13.57 116.61 15.11 116.64 16.65 C 114.37 17.64 112.15 18.74 109.98 19.92 L 111.99 20.29 C 111.55 20.59 110.66 21.19 110.22 21.49 C 110.59 22.92 109.26 23.10 108.33 23.52 L 107.95 22.76 C 108.27 20.95 109.51 19.51 110.39 17.95 C 107.27 18.84 103.69 19.09 101.50 21.80 C 102.04 22.19 103.13 22.99 103.67 23.39 C 103.14 26.31 101.11 28.41 99.00 30.31 C 99.21 30.79 99.62 31.75 99.82 32.22 C 98.50 31.07 96.91 30.33 95.28 29.73 C 95.72 30.20 96.58 31.16 97.02 31.63 L 95.54 32.22 C 98.03 33.34 96.55 35.99 95.87 37.71 C 94.24 38.36 92.62 39.07 90.99 39.73 C 92.84 41.07 93.17 42.78 91.98 44.84 C 89.79 43.28 87.53 41.53 86.94 38.74 C 83.72 38.76 80.75 42.96 83.78 45.34 C 83.47 45.44 82.85 45.66 82.54 45.77 C 80.68 44.18 80.22 41.58 80.03 39.27 C 78.66 38.29 77.25 37.35 75.84 36.44 C 75.24 37.44 74.91 38.57 74.85 39.75 C 73.01 41.30 70.98 42.59 69.09 44.09 C 70.15 43.77 72.27 43.14 73.33 42.83 C 72.08 45.25 70.82 47.71 68.81 49.60 C 68.80 51.63 68.83 53.66 68.88 55.70 C 68.30 56.13 67.13 56.99 66.55 57.42 L 67.42 58.18 C 67.22 58.79 66.81 60.01 66.60 60.61 L 66.12 61.23 C 65.85 61.57 65.31 62.24 65.04 62.57 C 63.88 63.06 62.73 63.57 61.58 64.09 C 61.01 62.37 60.51 60.62 60.14 58.84 C 58.82 56.35 59.53 53.45 59.33 50.76 C 58.31 49.33 58.37 46.52 56.03 46.78 C 52.78 46.79 49.58 45.45 48.26 42.30 C 48.84 39.85 49.53 37.43 50.30 35.04 C 50.99 34.45 51.69 33.86 52.40 33.28 L 53.45 32.80 C 52.98 32.22 52.04 31.04 51.57 30.45 C 51.99 29.01 53.24 28.11 53.91 26.84 C 54.32 24.90 51.87 24.39 51.24 22.97 C 51.66 21.87 52.82 21.27 53.57 20.41 C 54.48 21.94 56.07 23.23 57.95 23.03 C 59.61 23.02 61.17 22.42 62.65 21.73 C 63.40 20.11 64.74 18.95 66.23 18.02 C 64.87 18.31 63.51 18.58 62.14 18.82 C 62.68 17.33 63.34 15.90 64.11 14.52 C 62.38 15.40 60.47 16.42 61.51 18.73 C 60.06 19.57 58.45 20.55 56.72 19.84 C 56.78 19.27 56.90 18.13 56.95 17.56 C 59.16 15.23 60.84 12.08 64.11 11.09 C 65.95 11.23 67.47 12.60 69.17 13.19 C 68.24 13.62 67.30 14.05 66.36 14.48 C 66.51 14.87 66.80 15.65 66.95 16.04 C 68.04 15.56 69.14 15.09 70.24 14.63 L 69.73 12.66 C 70.13 12.98 70.93 13.62 71.34 13.93 C 73.34 11.78 76.83 11.15 79.15 13.19 C 77.69 11.68 77.93 10.04 79.46 8.76 C 80.16 9.45 80.86 10.14 81.57 10.83 C 83.00 9.72 84.46 8.60 85.67 7.23 C 86.87 7.01 88.08 6.80 89.30 6.59 M 79.76 11.90 C 78.88 13.27 81.42 14.48 82.44 13.71 C 83.17 12.35 80.83 11.18 79.76 11.90 M 64.12 29.12 C 63.46 30.69 61.58 29.78 60.34 29.74 L 60.99 27.69 L 58.92 26.89 L 60.19 30.04 C 59.10 27.07 54.77 27.80 55.06 30.74 C 54.60 31.06 53.68 31.71 53.22 32.04 C 54.82 31.97 56.41 31.84 58.00 31.66 C 58.79 32.60 59.31 34.25 60.88 33.95 C 63.54 34.14 66.72 34.94 68.34 32.15 C 67.31 32.03 65.27 31.78 64.25 31.65 C 64.84 30.70 65.43 29.75 66.03 28.81 C 66.93 29.11 67.83 29.46 68.70 29.85 C 68.98 29.48 69.53 28.72 69.80 28.34 C 69.21 28.18 68.01 27.87 67.41 27.71 C 67.86 27.27 68.75 26.39 69.20 25.95 C 67.28 26.59 64.94 26.99 64.12 29.12 M 70.72 27.20 C 72.11 28.50 71.96 30.40 72.06 32.13 C 75.54 32.20 72.79 28.98 73.22 27.28 C 74.66 24.66 71.71 27.00 70.72 27.20 M 67.95 39.42 C 68.39 40.54 68.89 41.80 70.09 42.32 C 69.94 40.83 69.20 39.51 68.72 38.12 L 67.80 38.02 C 67.79 37.33 67.76 35.96 67.75 35.27 C 65.67 36.51 67.21 37.87 67.95 39.42 M 72.01 35.35 C 71.08 36.76 74.16 38.97 74.48 36.79 C 73.86 35.85 73.04 35.37 72.01 35.35 Z" />
<path fill="#ffffff" opacity="1.00" d=" M 75.37 6.28 C 76.03 6.21 77.36 6.08 78.03 6.02 L 78.09 6.76 C 76.88 8.15 73.50 8.53 74.20 10.88 C 73.88 10.67 73.24 10.25 72.92 10.04 C 73.09 9.36 73.42 8.01 73.58 7.34 C 74.03 7.07 74.92 6.54 75.37 6.28 Z" />
<path fill="#ffffff" opacity="1.00" d=" M 15.45 10.12 C 14.94 8.90 16.72 7.87 17.74 8.22 C 18.34 9.35 16.47 11.05 15.45 10.12 Z" />
<path fill="#ffffff" opacity="1.00" d=" M 19.07 9.79 C 19.17 9.39 19.37 8.58 19.47 8.18 C 20.57 8.61 21.43 9.36 22.03 10.44 C 21.66 12.15 16.03 11.03 19.07 9.79 Z" />
<path fill="#ffffff" opacity="1.00" d=" M 25.27 9.12 C 26.84 9.29 29.41 9.53 30.49 10.69 C 28.92 11.53 25.17 11.55 25.27 9.12 Z" />
<path fill="#ffffff" opacity="1.00" d=" M 14.70 11.49 C 15.24 11.35 16.32 11.08 16.86 10.95 C 16.96 11.76 17.18 13.38 17.28 14.19 C 16.65 13.96 15.38 13.52 14.75 13.29 C 14.73 12.84 14.71 11.94 14.70 11.49 Z" />
<path fill="#ffffff" opacity="1.00" d=" M 17.81 12.16 C 19.17 12.32 20.54 12.35 21.91 12.25 C 22.28 13.84 23.82 15.65 22.14 17.08 C 22.48 17.05 23.15 16.98 23.48 16.94 C 24.05 15.81 24.75 14.75 25.49 13.72 C 24.74 13.36 23.26 12.64 22.52 12.28 C 23.39 12.14 25.13 11.86 26.01 11.72 C 25.90 13.04 25.94 14.37 26.13 15.68 L 27.59 14.93 C 27.50 15.41 27.32 16.37 27.23 16.86 C 27.73 16.58 28.74 16.02 29.24 15.74 C 28.17 14.71 27.19 13.58 26.57 12.22 C 27.32 12.22 28.84 12.23 29.60 12.23 C 31.42 13.08 33.27 13.90 35.12 14.70 C 33.98 15.50 32.83 16.28 31.67 17.03 L 31.41 14.60 C 29.20 15.27 29.29 17.47 29.14 19.37 C 27.76 20.10 26.47 20.99 25.24 21.96 C 26.91 23.69 29.01 24.87 31.37 25.35 C 31.32 23.81 31.27 22.27 31.21 20.72 C 32.11 20.16 33.00 19.58 33.89 19.00 L 30.70 19.00 C 32.22 17.67 33.73 16.32 35.22 14.96 L 34.10 18.65 C 34.72 17.61 35.32 16.56 35.92 15.51 L 36.78 17.92 L 36.52 18.31 L 35.15 17.05 C 35.27 17.61 35.50 18.73 35.62 19.29 C 34.70 20.32 34.26 21.58 34.31 23.06 L 36.95 22.04 C 36.81 22.59 36.51 23.69 36.37 24.23 C 37.38 24.83 38.40 25.40 39.43 25.95 C 38.86 26.37 37.71 27.23 37.14 27.65 C 37.92 28.04 39.47 28.82 40.25 29.21 C 38.26 28.66 36.26 27.99 34.16 28.16 C 35.24 29.16 36.37 30.10 37.52 31.03 C 34.55 30.29 32.14 33.08 31.19 35.55 C 30.01 36.85 30.31 38.72 29.97 40.32 C 29.70 39.76 29.16 38.64 28.89 38.09 C 27.62 38.09 26.34 38.09 25.07 38.07 C 24.51 39.12 24.08 40.22 23.80 41.37 C 24.27 41.90 25.20 42.95 25.66 43.47 C 26.39 43.02 27.84 42.11 28.57 41.65 C 28.17 42.40 27.39 43.91 27.00 44.66 C 28.47 44.59 29.42 45.24 29.56 46.72 C 31.94 48.85 35.16 49.05 37.99 50.21 C 38.42 50.44 39.28 50.89 39.71 51.11 C 39.82 51.70 40.04 52.87 40.15 53.45 C 41.54 54.32 43.50 54.61 44.33 56.14 C 43.66 58.03 42.83 59.88 42.73 61.91 C 39.77 64.14 38.99 67.98 36.36 70.50 C 35.36 71.45 34.38 72.42 33.39 73.38 C 33.46 75.11 33.48 76.87 31.98 78.06 C 32.54 78.63 33.67 79.76 34.23 80.33 C 32.65 79.91 31.46 78.79 30.25 77.77 C 30.28 77.16 30.34 75.93 30.37 75.32 C 31.24 74.15 31.40 72.96 30.86 71.73 C 31.28 69.71 31.36 67.64 31.45 65.59 C 32.08 64.30 32.00 62.87 32.07 61.49 C 29.87 59.57 27.50 57.34 27.61 54.17 C 28.48 52.09 29.37 50.02 30.43 48.03 C 28.05 46.08 25.32 44.68 22.45 43.60 C 21.90 42.58 21.33 41.56 20.76 40.55 C 18.02 39.26 17.27 35.80 15.35 33.60 C 13.95 31.39 14.05 28.75 13.83 26.24 L 13.63 26.07 C 12.27 24.80 10.97 23.47 9.67 22.15 C 8.31 21.76 6.96 21.36 5.61 20.96 C 5.75 23.57 2.79 24.36 1.26 25.84 L 3.18 23.27 C 2.65 22.87 1.58 22.06 1.04 21.65 C 0.92 19.18 0.17 16.58 1.09 14.18 C 5.04 12.34 8.99 15.81 13.05 15.02 C 14.91 14.69 16.74 15.18 18.51 15.68 C 18.96 15.29 19.84 14.53 20.29 14.15 C 18.10 14.59 17.27 13.93 17.81 12.16 M 18.89 16.24 C 19.01 18.00 22.58 16.60 22.14 15.21 C 20.94 15.13 19.86 15.48 18.89 16.24 M 31.24 26.25 C 31.78 26.76 31.78 26.76 31.24 26.25 Z" />
<path fill="#ffffff" opacity="1.00" d=" M 103.12 28.01 C 103.65 27.98 104.69 27.94 105.21 27.92 C 103.76 29.84 104.01 33.91 100.43 33.15 C 102.01 31.83 103.75 30.32 103.12 28.01 Z" />
<path fill="#ffffff" opacity="1.00" d=" M 28.76 41.63 C 30.88 40.26 33.04 43.37 35.21 43.71 C 32.80 44.33 31.04 41.98 28.76 41.63 Z" />
<path fill="#ffffff" opacity="1.00" d=" M 96.34 43.01 C 97.41 42.28 99.27 43.76 98.94 44.96 C 97.89 45.38 95.97 44.25 96.34 43.01 Z" />
<path fill="#ffffff" opacity="1.00" d=" M 88.20 43.73 C 89.75 43.21 92.19 46.43 90.13 47.19 C 88.85 46.74 88.12 45.00 88.20 43.73 Z" />
<path fill="#ffffff" opacity="1.00" d=" M 93.85 48.32 C 91.84 47.36 94.41 44.25 96.01 44.96 C 96.50 46.28 95.28 48.21 93.85 48.32 Z" />
<path fill="#ffffff" opacity="1.00" d=" M 91.07 48.69 C 93.37 49.80 95.44 51.48 96.40 53.91 C 96.91 53.97 97.94 54.08 98.45 54.14 C 98.06 54.40 97.29 54.92 96.90 55.19 C 95.79 54.44 94.80 53.52 93.95 52.48 L 93.28 51.41 C 92.58 50.48 91.81 49.60 91.07 48.69 Z" />
<path fill="#ffffff" opacity="1.00" d=" M 98.23 48.85 C 98.78 49.31 99.88 50.22 100.44 50.67 C 99.71 52.57 96.53 54.46 96.68 51.08 C 97.34 51.04 98.64 50.97 99.29 50.93 C 98.92 50.58 98.19 49.89 97.82 49.54 L 98.23 48.85 Z" />
<path fill="#ffffff" opacity="1.00" d=" M 105.90 51.89 C 106.93 52.37 107.97 52.84 109.02 53.29 C 109.38 54.42 110.11 55.33 110.94 56.16 C 109.03 55.28 104.99 54.85 105.90 51.89 Z" />
<path fill="#ffffff" opacity="1.00" d=" M 69.89 55.20 C 70.99 54.79 72.08 54.37 73.18 53.93 C 71.10 55.15 73.12 59.85 69.95 58.90 C 69.39 57.68 70.84 56.42 69.89 55.20 Z" />
<path fill="#ffffff" opacity="1.00" d=" M 99.86 55.97 C 100.13 55.60 100.67 54.87 100.94 54.50 C 101.08 54.87 101.36 55.61 101.49 55.97 C 101.09 55.97 100.27 55.97 99.86 55.97 Z" />
<path fill="#ffffff" opacity="1.00" d=" M 98.02 61.46 C 100.48 59.70 102.06 55.70 105.49 56.10 C 105.97 57.88 106.97 58.84 108.82 57.99 C 109.52 59.19 110.29 60.35 111.24 61.37 C 112.22 64.02 111.57 66.71 110.03 69.00 C 109.29 69.00 107.82 69.00 107.08 69.00 C 107.11 68.54 107.16 67.63 107.18 67.18 C 105.58 67.26 104.76 66.49 104.70 64.88 C 102.87 65.95 101.08 67.10 99.28 68.21 C 99.23 65.88 97.40 63.80 98.02 61.46 Z" />
<path fill="#ffffff" opacity="1.00" d=" M 118.69 67.40 C 119.58 67.83 120.45 68.29 121.29 68.79 L 119.73 69.16 C 119.63 70.79 118.68 72.08 117.44 73.08 C 117.08 72.97 116.36 72.77 116.01 72.66 C 116.34 72.38 117.02 71.81 117.36 71.53 C 117.74 71.21 118.50 70.57 118.88 70.25 C 118.83 69.54 118.74 68.11 118.69 67.40 Z" />
<path fill="#ffffff" opacity="1.00" d=" M 109.20 71.57 C 107.12 70.85 110.06 68.48 110.88 70.22 C 110.46 70.56 109.62 71.23 109.20 71.57 Z" />
</g>
<g id="#ebebebeb">
<path fill="#ebebeb" opacity="0.92" d=" M 22.14 7.22 C 22.81 7.21 24.16 7.20 24.83 7.20 C 24.44 8.35 23.55 8.56 22.16 7.80 L 22.14 7.22 Z" />
</g>
<g id="#c5c5c5c5">
<path fill="#c5c5c5" opacity="0.77" d=" M 23.13 9.12 C 26.31 9.42 21.62 12.27 23.13 9.12 Z" />
</g>
<g id="#f7f7f7f8">
<path fill="#f7f7f7" opacity="0.97" d=" M 47.06 14.35 C 48.06 14.34 49.05 14.35 50.04 14.25 C 50.35 16.34 48.06 17.82 46.89 15.59 C 46.94 15.28 47.02 14.66 47.06 14.35 Z" />
</g>
<g id="#00000033">
<path fill="#000000" opacity="0.20" d=" M 50.04 14.25 C 50.43 14.21 51.19 14.12 51.57 14.07 C 53.13 16.13 54.64 18.27 56.72 19.84 C 58.45 20.55 60.06 19.57 61.51 18.73 C 60.47 16.42 62.38 15.40 64.11 14.52 C 63.34 15.90 62.68 17.33 62.14 18.82 L 63.55 19.28 C 61.92 20.11 60.24 20.84 58.51 21.44 C 58.37 21.84 58.09 22.63 57.95 23.03 C 56.07 23.23 54.48 21.94 53.57 20.41 C 52.82 21.27 51.66 21.87 51.24 22.97 C 51.87 24.39 54.32 24.90 53.91 26.84 C 53.24 28.11 51.99 29.01 51.57 30.45 C 52.04 31.04 52.98 32.22 53.45 32.80 L 52.40 33.28 C 50.77 32.94 48.35 33.10 47.78 31.09 C 46.46 27.26 46.26 22.94 43.43 19.79 C 43.54 19.45 43.76 18.76 43.87 18.42 C 44.85 17.45 45.88 16.52 46.89 15.59 C 48.06 17.82 50.35 16.34 50.04 14.25 Z" />
<path fill="#000000" opacity="0.20" d=" M 101.50 21.80 C 103.67 21.92 105.87 22.07 107.95 22.76 L 108.33 23.52 C 109.26 23.10 110.59 22.92 110.22 21.49 C 114.61 24.05 119.67 25.00 124.69 25.30 C 124.68 26.76 124.67 28.23 124.67 29.69 C 120.23 32.63 114.28 30.51 110.08 33.98 C 110.52 35.10 111.18 36.15 111.35 37.36 C 110.71 40.91 107.34 42.92 104.58 44.79 C 105.53 48.31 103.32 51.16 100.51 53.01 C 100.50 53.02 100.48 53.04 100.46 53.05 L 100.52 53.22 L 100.94 54.50 C 100.67 54.87 100.13 55.60 99.86 55.97 C 99.67 56.14 99.27 56.47 99.07 56.64 C 98.34 56.16 97.61 55.68 96.90 55.19 C 97.29 54.92 98.06 54.40 98.45 54.14 C 97.94 54.08 96.91 53.97 96.40 53.91 C 95.44 51.48 93.37 49.80 91.07 48.69 C 91.81 49.60 92.58 50.48 93.28 51.41 C 91.33 53.55 90.11 56.17 90.57 59.12 C 89.13 56.80 88.33 54.19 87.21 51.72 C 84.94 50.05 82.21 49.19 79.59 48.25 C 80.59 49.78 81.92 51.04 83.33 52.18 C 81.89 53.43 80.44 54.66 78.97 55.87 C 79.46 56.03 80.44 56.34 80.94 56.49 C 79.28 59.56 76.67 62.35 76.75 66.05 C 76.09 70.44 74.70 75.99 69.63 76.95 C 67.13 72.03 67.83 66.37 66.12 61.23 L 66.60 60.61 C 66.81 60.01 67.22 58.79 67.42 58.18 L 66.55 57.42 C 67.13 56.99 68.30 56.13 68.88 55.70 C 68.83 53.66 68.80 51.63 68.81 49.60 C 70.82 47.71 72.08 45.25 73.33 42.83 C 72.27 43.14 70.15 43.77 69.09 44.09 C 70.98 42.59 73.01 41.30 74.85 39.75 C 74.91 38.57 75.24 37.44 75.84 36.44 C 77.25 37.35 78.66 38.29 80.03 39.27 C 80.22 41.58 80.68 44.18 82.54 45.77 C 82.85 45.66 83.47 45.44 83.78 45.34 C 80.75 42.96 83.72 38.76 86.94 38.74 C 87.53 41.53 89.79 43.28 91.98 44.84 C 93.17 42.78 92.84 41.07 90.99 39.73 C 92.62 39.07 94.24 38.36 95.87 37.71 C 96.55 35.99 98.03 33.34 95.54 32.22 L 97.02 31.63 C 96.58 31.16 95.72 30.20 95.28 29.73 C 96.91 30.33 98.50 31.07 99.82 32.22 C 99.62 31.75 99.21 30.79 99.00 30.31 C 101.11 28.41 103.14 26.31 103.67 23.39 C 103.13 22.99 102.04 22.19 101.50 21.80 M 104.23 24.23 C 104.77 24.77 104.77 24.77 104.23 24.23 M 103.12 28.01 C 103.75 30.32 102.01 31.83 100.43 33.15 C 104.01 33.91 103.76 29.84 105.21 27.92 C 104.69 27.94 103.65 27.98 103.12 28.01 M 96.12 41.19 C 96.80 41.87 96.80 41.87 96.12 41.19 M 96.34 43.01 C 95.97 44.25 97.89 45.38 98.94 44.96 C 99.27 43.76 97.41 42.28 96.34 43.01 M 88.20 43.73 C 88.12 45.00 88.85 46.74 90.13 47.19 C 92.19 46.43 89.75 43.21 88.20 43.73 M 93.85 48.32 C 95.28 48.21 96.50 46.28 96.01 44.96 C 94.41 44.25 91.84 47.36 93.85 48.32 M 98.23 48.85 L 97.82 49.54 C 98.19 49.89 98.92 50.58 99.29 50.93 C 98.64 50.97 97.34 51.04 96.68 51.08 C 96.53 54.46 99.71 52.57 100.44 50.67 C 99.88 50.22 98.78 49.31 98.23 48.85 M 69.89 55.20 C 70.84 56.42 69.39 57.68 69.95 58.90 C 73.12 59.85 71.10 55.15 73.18 53.93 C 72.08 54.37 70.99 54.79 69.89 55.20 Z" />
<path fill="#000000" opacity="0.20" d=" M 8.93 27.15 C 10.49 26.77 12.05 26.37 13.63 26.07 L 13.83 26.24 C 14.05 28.75 13.95 31.39 15.35 33.60 C 13.93 34.75 12.52 35.90 11.10 37.05 C 8.62 34.32 8.41 30.63 8.93 27.15 Z" />
<path fill="#000000" opacity="0.20" d=" M 31.19 35.55 C 32.14 33.08 34.55 30.29 37.52 31.03 C 36.23 32.45 34.87 33.79 33.47 35.10 C 34.98 36.56 36.79 37.61 38.81 38.16 C 39.18 36.47 39.53 34.77 39.85 33.06 C 42.22 34.88 45.52 36.06 46.56 39.13 C 46.59 40.88 44.15 40.77 43.08 41.62 C 43.55 42.26 44.02 42.91 44.50 43.55 C 41.49 44.82 39.50 47.43 37.99 50.21 C 35.16 49.05 31.94 48.85 29.56 46.72 C 29.42 45.24 28.47 44.59 27.00 44.66 C 27.39 43.91 28.17 42.40 28.57 41.65 C 27.84 42.11 26.39 43.02 25.66 43.47 C 25.20 42.95 24.27 41.90 23.80 41.37 C 24.08 40.22 24.51 39.12 25.07 38.07 C 26.34 38.09 27.62 38.09 28.89 38.09 C 29.16 38.64 29.70 39.76 29.97 40.32 C 30.31 38.72 30.01 36.85 31.19 35.55 M 28.76 41.63 C 31.04 41.98 32.80 44.33 35.21 43.71 C 33.04 43.37 30.88 40.26 28.76 41.63 Z" />
<path fill="#000000" opacity="0.20" d=" M 27.61 54.17 C 26.40 50.40 23.47 47.46 22.45 43.60 C 25.32 44.68 28.05 46.08 30.43 48.03 C 29.37 50.02 28.48 52.09 27.61 54.17 Z" />
<path fill="#000000" opacity="0.20" d=" M 42.73 61.91 C 46.84 62.79 48.80 66.67 51.92 69.06 C 51.14 75.77 46.25 81.02 42.07 85.97 C 41.06 87.97 40.57 90.19 39.83 92.29 C 39.51 91.85 38.88 90.97 38.57 90.53 C 38.45 85.38 39.84 80.29 39.90 75.13 C 39.21 73.28 37.62 71.96 36.36 70.50 C 38.99 67.98 39.77 64.14 42.73 61.91 Z" />
<path fill="#000000" opacity="0.20" d=" M 112.18 68.87 C 113.73 70.07 115.45 71.04 117.36 71.53 C 117.02 71.81 116.34 72.38 116.01 72.66 C 116.36 72.77 117.08 72.97 117.44 73.08 C 120.65 74.72 120.29 79.56 117.85 81.80 C 115.19 83.00 114.25 79.27 112.19 78.42 C 110.51 79.17 108.95 80.14 107.36 81.05 C 106.82 79.09 105.94 77.15 105.97 75.08 C 106.48 73.51 107.87 72.43 109.20 71.57 C 109.62 71.23 110.46 70.56 110.88 70.22 C 111.21 69.88 111.85 69.21 112.18 68.87 Z" />
</g>
<g id="#00000032">
<path fill="#000000" opacity="0.20" d=" M 36.78 17.92 L 38.22 15.98 C 39.31 17.38 40.33 18.84 41.45 20.22 C 39.93 20.77 38.44 21.41 36.95 22.04 L 34.31 23.06 C 34.26 21.58 34.70 20.32 35.62 19.29 C 35.50 18.73 35.27 17.61 35.15 17.05 L 36.52 18.31 L 36.78 17.92 Z" />
<path fill="#000000" opacity="0.20" d=" M 70.72 27.20 C 71.71 27.00 74.66 24.66 73.22 27.28 C 72.79 28.98 75.54 32.20 72.06 32.13 C 71.96 30.40 72.11 28.50 70.72 27.20 Z" />
<path fill="#000000" opacity="0.20" d=" M 67.95 39.42 C 67.21 37.87 65.67 36.51 67.75 35.27 C 67.76 35.96 67.79 37.33 67.80 38.02 L 68.72 38.12 C 69.20 39.51 69.94 40.83 70.09 42.32 C 68.89 41.80 68.39 40.54 67.95 39.42 Z" />
</g>
<g id="#66666666">
<path fill="#666666" opacity="0.40" d=" M 62.14 18.82 C 63.51 18.58 64.87 18.31 66.23 18.02 C 64.74 18.95 63.40 20.11 62.65 21.73 C 61.17 22.42 59.61 23.02 57.95 23.03 C 58.09 22.63 58.37 21.84 58.51 21.44 C 60.24 20.84 61.92 20.11 63.55 19.28 L 62.14 18.82 Z" />
</g>
<g id="#5d5d5d7d">
<path fill="#5d5d5d" opacity="0.49" d=" M 104.23 24.23 C 104.77 24.77 104.77 24.77 104.23 24.23 Z" />
</g>
<g id="#adadadad">
<path fill="#adadad" opacity="0.68" d=" M 0.00 25.17 L 0.57 25.08 L 0.60 25.63 L 0.00 25.78 L 0.00 25.17 Z" />
</g>
<g id="#cdcdcdcd">
<path fill="#cdcdcd" opacity="0.80" d=" M 31.24 26.25 C 31.78 26.76 31.78 26.76 31.24 26.25 Z" />
</g>
<g id="#00000029">
<path fill="#000000" opacity="0.16" d=" M 39.43 25.95 C 41.72 26.89 43.57 28.50 44.82 30.63 C 44.26 31.48 43.71 32.33 43.15 33.19 C 41.86 32.77 40.57 32.35 39.27 31.93 C 39.72 31.16 40.15 30.39 40.58 29.61 C 40.50 29.51 40.33 29.31 40.25 29.21 C 39.47 28.82 37.92 28.04 37.14 27.65 C 37.71 27.23 38.86 26.37 39.43 25.95 Z" />
</g>
<g id="#46464646">
<path fill="#464646" opacity="0.27" d=" M 59.88 31.24 C 60.41 31.76 60.41 31.76 59.88 31.24 Z" />
</g>
<g id="#00000030">
<path fill="#000000" opacity="0.19" d=" M 117.32 33.05 C 119.72 32.10 118.83 36.20 116.97 35.95 C 115.37 35.65 116.17 33.41 117.32 33.05 Z" />
</g>
<g id="#15151544">
<path fill="#151515" opacity="0.27" d=" M 72.01 35.35 C 73.04 35.37 73.86 35.85 74.48 36.79 C 74.16 38.97 71.08 36.76 72.01 35.35 Z" />
</g>
<g id="#d9d9d9e1">
<path fill="#d9d9d9" opacity="0.88" d=" M 96.12 41.19 C 96.80 41.87 96.80 41.87 96.12 41.19 Z" />
</g>
<g id="#0000002c">
<path fill="#000000" opacity="0.17" d=" M 111.13 41.00 C 111.58 41.01 112.46 41.04 112.90 41.05 C 112.10 43.13 111.78 46.33 108.85 46.23 C 109.46 45.37 110.08 44.50 110.70 43.64 C 110.81 42.98 111.03 41.66 111.13 41.00 Z" />
</g>
<g id="#a8a8a8ad">
<path fill="#a8a8a8" opacity="0.68" d=" M 104.21 51.23 C 104.85 51.84 104.85 51.84 104.21 51.23 Z" />
</g>
<g id="#e6e6e6e6">
<path fill="#e6e6e6" opacity="0.90" d=" M 100.46 53.05 C 100.48 53.04 100.50 53.02 100.51 53.01 L 100.52 53.22 L 100.46 53.05 Z" />
</g>
<g id="#00000031">
<path fill="#000000" opacity="0.19" d=" M 114.19 65.49 C 115.38 64.66 117.75 66.33 116.82 67.69 C 115.56 68.69 113.26 66.91 114.19 65.49 Z" />
</g>
<g id="#0000002d">
<path fill="#000000" opacity="0.18" d=" M 77.90 72.24 C 78.03 70.25 77.14 67.24 80.21 67.57 C 79.85 69.37 80.73 72.43 77.90 72.24 Z" />
</g>
</svg>
