<svg width="172" height="124" viewBox="0 0 129 93" xmlns="http://www.w3.org/2000/svg"><g fill="#fff"><path d="M42.46 0h.8c1.25 3.66 5.13 5.73 5.87 9.58-1.22 1.65-2.41 3.32-3.56 5.01-1.67.68-1.78 2.24-1.7 3.83l-.44 1.37c-.5.11-1.48.33-1.98.43-1.12-1.38-2.14-2.84-3.23-4.24.48-.64.96-1.27 1.44-1.9-.5-.43-1.52-1.28-2.02-1.71 1.35-2.94-2.72-3.91-2.13-6.49 1.43-2.74 4.8-3.36 6.94-5.38l.01-.5zm15.6 3.4c1.68-.27 3.32-.72 4.91-1.35.61.69 1.23 1.39 1.84 2.09-.89-.26-2.67-.79-3.55-1.05.11.79.32 2.36.43 3.15-1.37-.72-2.5-1.8-3.63-2.84zm-31.16.72c3.21-.64 6.35-1.51 9.66-1.13l.09.9c-.54.08-1.6.24-2.13.31-.14.4-.43 1.19-.57 1.58-.44.1-1.31.31-1.75.41.08.35.23 1.07.31 1.43-.64.4-1.93 1.21-2.57 1.62l-2.46-2.28c-.22.33-.66.98-.88 1.31-.69-1.11-2.51-2.27-1.11-3.72 1.84 1.6 3.85 2.49 5.95.7-1.61-.02-3.32.13-4.54-1.13zm62.4 2.47c.35-.41 1.07-1.23 1.43-1.64.98.45 1.95.91 2.93 1.36.06.45.18 1.33.23 1.77 2.84.96 5.82 1.38 8.66 2.34.19-.29.57-.87.76-1.15 4.29 1.52 8.63 3.22 13.28 2.76 0 1.54.02 3.08.05 4.62-2.27.99-4.49 2.09-6.66 3.27l2.01.37c-.44.3-1.33.9-1.77 1.2.37 1.43-.96 1.61-1.89 2.03l-.38-.76c.32-1.81 1.56-3.25 2.44-4.81-3.12.89-6.7 1.14-8.89 3.85.54.39 1.63 1.19 2.17 1.59-.53 2.92-2.56 5.02-4.67 6.92.21.48.62 1.44.82 1.91-1.32-1.15-2.91-1.89-4.54-2.49.44.47 1.3 1.43 1.74 1.9l-1.48.59c2.49 1.12 1.01 3.77.33 5.49-1.63.65-3.25 1.36-4.88 2.02 1.85 1.34 2.18 3.05.99 5.11-2.19-1.56-4.45-3.31-5.04-6.1-3.22.02-6.19 4.22-3.16 6.6-.31.1-.93.32-1.24.43-1.86-1.59-2.32-4.19-2.51-6.5-1.37-.98-2.78-1.92-4.19-2.83a7.1 7.1 0 0 0-.99 3.31c-1.84 1.55-3.87 2.84-5.76 4.34 1.06-.32 3.18-.95 4.24-1.26-1.25 2.42-2.51 4.88-4.52 6.77-.01 2.03.02 4.06.07 6.1-.58.43-1.75 1.29-2.33 1.72l.87.76c-.2.61-.61 1.83-.82 2.43l-.48.62c-.27.34-.81 1.01-1.08 1.34-1.16.49-2.31 1-3.46 1.52-.57-1.72-1.07-3.47-1.44-5.25-1.32-2.49-.61-5.39-.81-8.08-1.02-1.43-.96-4.24-3.3-3.98-3.25.01-6.45-1.33-7.77-4.48.58-2.45 1.27-4.87 2.04-7.26.69-.59 1.39-1.18 2.1-1.76l1.05-.48c-.47-.58-1.41-1.76-1.88-2.35.42-1.44 1.67-2.34 2.34-3.61.41-1.94-2.04-2.45-2.67-3.87.42-1.1 1.58-1.7 2.33-2.56.91 1.53 2.5 2.82 4.38 2.62 1.66-.01 3.22-.61 4.7-1.3.75-1.62 2.09-2.78 3.58-3.71-1.36.29-2.72.56-4.09.8a29.3 29.3 0 0 1 1.97-4.3c-1.73.88-3.64 1.9-2.6 4.21-1.45.84-3.06 1.82-4.79 1.11.06-.57.18-1.71.23-2.28 2.21-2.33 3.89-5.48 7.16-6.47 1.84.14 3.36 1.51 5.06 2.1-.93.43-1.87.86-2.81 1.29.15.39.44 1.17.59 1.56 1.09-.48 2.19-.95 3.29-1.41l-.51-1.97c.4.32 1.2.96 1.61 1.27 2-2.15 5.49-2.78 7.81-.74-1.46-1.51-1.22-3.15.31-4.43.7.69 1.4 1.38 2.11 2.07 1.43-1.11 2.89-2.23 4.1-3.6 1.2-.22 2.41-.43 3.63-.64m-9.54 5.31c-.88 1.37 1.66 2.58 2.68 1.81.73-1.36-1.61-2.53-2.68-1.81M64.12 29.12c-.66 1.57-2.54.66-3.78.62l.65-2.05-2.07-.8 1.27 3.15c-1.09-2.97-5.42-2.24-5.13.7-.46.32-1.38.97-1.84 1.3 1.6-.07 3.19-.2 4.78-.38.79.94 1.31 2.59 2.88 2.29 2.66.19 5.84.99 7.46-1.8-1.03-.12-3.07-.37-4.09-.5.59-.95 1.18-1.9 1.78-2.84.9.3 1.8.65 2.67 1.04.28-.37.83-1.13 1.1-1.51-.59-.16-1.79-.47-2.39-.63.45-.44 1.34-1.32 1.79-1.76-1.92.64-4.26 1.04-5.08 3.17m6.6-1.92c1.39 1.3 1.24 3.2 1.34 4.93 3.48.07.73-3.15 1.16-4.85 1.44-2.62-1.51-.28-2.5-.08m-2.77 12.22c.44 1.12.94 2.38 2.14 2.9-.15-1.49-.89-2.81-1.37-4.2l-.92-.1c-.01-.69-.04-2.06-.05-2.75-2.08 1.24-.54 2.6.2 4.15m4.06-4.07c-.93 1.41 2.15 3.62 2.47 1.44-.62-.94-1.44-1.42-2.47-1.44z"/><path d="M75.37 6.28c.66-.07 1.99-.2 2.66-.26l.06.74c-1.21 1.39-4.59 1.77-3.89 4.12l-1.28-.84c.17-.68.5-2.03.66-2.7.45-.27 1.34-.8 1.79-1.06zm-59.92 3.84c-.51-1.22 1.27-2.25 2.29-1.9.6 1.13-1.27 2.83-2.29 1.9zm3.62-.33l.4-1.61c1.1.43 1.96 1.18 2.56 2.26-.37 1.71-6 .59-2.96-.65zm6.2-.67c1.57.17 4.14.41 5.22 1.57-1.57.84-5.32.86-5.22-1.57zM14.7 11.49c.54-.14 1.62-.41 2.16-.54.1.81.32 2.43.42 3.24-.63-.23-1.9-.67-2.53-.9-.02-.45-.04-1.35-.05-1.8z"/><path d="M17.81 12.16c1.36.16 2.73.19 4.1.09.37 1.59 1.91 3.4.23 4.83.34-.03 1.01-.1 1.34-.14.57-1.13 1.27-2.19 2.01-3.22-.75-.36-2.23-1.08-2.97-1.44.87-.14 2.61-.42 3.49-.56-.11 1.32-.07 2.65.12 3.96l1.46-.75c-.09.48-.27 1.44-.36 1.93.5-.28 1.51-.84 2.01-1.12-1.07-1.03-2.05-2.16-2.67-3.52.75 0 2.27.01 3.03.01 1.82.85 3.67 1.67 5.52 2.47-1.14.8-2.29 1.58-3.45 2.33l-.26-2.43c-2.21.67-2.12 2.87-2.27 4.77-1.38.73-2.67 1.62-3.9 2.59 1.67 1.73 3.77 2.91 6.13 3.39-.05-1.54-.1-3.08-.16-4.63.9-.56 1.79-1.14 2.68-1.72H30.7c1.52-1.33 3.03-2.68 4.52-4.04l-1.12 3.69c.62-1.04 1.22-2.09 1.82-3.14l.86 2.41-.26.39-1.37-1.26c.12.56.35 1.68.47 2.24-.92 1.03-1.36 2.29-1.31 3.77l2.64-1.02c-.14.55-.44 1.65-.58 2.19 1.01.6 2.03 1.17 3.06 1.72-.57.42-1.72 1.28-2.29 1.7.78.39 2.33 1.17 3.11 1.56-1.99-.55-3.99-1.22-6.09-1.05 1.08 1 2.21 1.94 3.36 2.87-2.97-.74-5.38 2.05-6.33 4.52-1.18 1.3-.88 3.17-1.22 4.77-.27-.56-.81-1.68-1.08-2.23-1.27 0-2.55 0-3.82-.02-.56 1.05-.99 2.15-1.27 3.3l1.86 2.1c.73-.45 2.18-1.36 2.91-1.82-.4.75-1.18 2.26-1.57 3.01 1.47-.07 2.42.58 2.56 2.06 2.38 2.13 5.6 2.33 8.43 3.49.43.23 1.29.68 1.72.9l.44 2.34c1.39.87 3.35 1.16 4.18 2.69-.67 1.89-1.5 3.74-1.6 5.77-2.96 2.23-3.74 6.07-6.37 8.59-1 .95-1.98 1.92-2.97 2.88.07 1.73.09 3.49-1.41 4.68.56.57 1.69 1.7 2.25 2.27-1.58-.42-2.77-1.54-3.98-2.56l.12-2.45c.87-1.17 1.03-2.36.49-3.59.42-2.02.5-4.09.59-6.14.63-1.29.55-2.72.62-4.1-2.2-1.92-4.57-4.15-4.46-7.32.87-2.08 1.76-4.15 2.82-6.14-2.38-1.95-5.11-3.35-7.98-4.43-.55-1.02-1.12-2.04-1.69-3.05-2.74-1.29-3.49-4.75-5.41-6.95-1.4-2.21-1.3-4.85-1.52-7.36l-.2-.17c-1.36-1.27-2.66-2.6-3.96-3.92-1.36-.39-2.71-.79-4.06-1.19.14 2.61-2.82 3.4-4.35 4.88l1.92-2.57-2.14-1.62c-.12-2.47-.87-5.07.05-7.47 3.95-1.84 7.9 1.63 11.96.84 1.86-.33 3.69.16 5.46.66.45-.39 1.33-1.15 1.78-1.53-2.19.44-3.02-.22-2.48-1.99m1.08 4.08c.12 1.76 3.69.36 3.25-1.03-1.2-.08-2.28.27-3.25 1.03m12.35 10.01c.54.51.54.51 0 0zm71.88 1.76c.53-.03 1.57-.07 2.09-.09-1.45 1.92-1.2 5.99-4.78 5.23 1.58-1.32 3.32-2.83 2.69-5.14z"/><path d="M28.76 41.63c2.12-1.37 4.28 1.74 6.45 2.08-2.41.62-4.17-1.73-6.45-2.08zm67.58 1.38c1.07-.73 2.93.75 2.6 1.95-1.05.42-2.97-.71-2.6-1.95zm-8.14.72c1.55-.52 3.99 2.7 1.93 3.46-1.28-.45-2.01-2.19-1.93-3.46zm5.65 4.59c-2.01-.96.56-4.07 2.16-3.36.49 1.32-.73 3.25-2.16 3.36zm-2.78.37c2.3 1.11 4.37 2.79 5.33 5.22.51.06 1.54.17 2.05.23-.39.26-1.16.78-1.55 1.05-1.11-.75-2.1-1.67-2.95-2.71l-.67-1.07c-.7-.93-1.47-1.81-2.21-2.72z"/><path d="M98.23 48.85c.55.46 1.65 1.37 2.21 1.82-.73 1.9-3.91 3.79-3.76.41.66-.04 1.96-.11 2.61-.15l-1.47-1.39.41-.69zm7.67 3.04c1.03.48 2.07.95 3.12 1.4.36 1.13 1.09 2.04 1.92 2.87-1.91-.88-5.95-1.31-5.04-4.27zM69.89 55.2c1.1-.41 2.19-.83 3.29-1.27-2.08 1.22-.06 5.92-3.23 4.97-.56-1.22.89-2.48-.06-3.7zm29.97.77c.27-.37.81-1.1 1.08-1.47.14.37.42 1.11.55 1.47h-1.63zm-1.84 5.49c2.46-1.76 4.04-5.76 7.47-5.36.48 1.78 1.48 2.74 3.33 1.89.7 1.2 1.47 2.36 2.42 3.38.98 2.65.33 5.34-1.21 7.63h-2.95c.03-.46.08-1.37.1-1.82-1.6.08-2.42-.69-2.48-2.3-1.83 1.07-3.62 2.22-5.42 3.33-.05-2.33-1.88-4.41-1.26-6.75zm20.67 5.94c.89.43 1.76.89 2.6 1.39l-1.56.37c-.1 1.63-1.05 2.92-2.29 3.92-.36-.11-1.08-.31-1.43-.42.33-.28 1.01-.85 1.35-1.13l1.52-1.28c-.05-.71-.14-2.14-.19-2.85zm-9.49 4.17c-2.08-.72.86-3.09 1.68-1.35-.42.34-1.26 1.01-1.68 1.35z"/></g><path fill="#ebebeb" opacity=".92" d="M22.14 7.22c.67-.01 2.02-.02 2.69-.02-.39 1.15-1.28 1.36-2.67.6l-.02-.58z"/><path fill="#c5c5c5" opacity=".77" d="M23.13 9.12c3.18.3-1.51 3.15 0 0z"/><path fill="#f7f7f7" opacity=".97" d="M47.06 14.35c1-.01 1.99 0 2.98-.1.31 2.09-1.98 3.57-3.15 1.34.05-.31.13-.93.17-1.24z"/><path opacity=".2" d="M50.04 14.25c.39-.04 1.15-.13 1.53-.18 1.56 2.06 3.07 4.2 5.15 5.77 1.73.71 3.34-.27 4.79-1.11-1.04-2.31.87-3.33 2.6-4.21a29.3 29.3 0 0 0-1.97 4.3l1.41.46a40.01 40.01 0 0 1-5.04 2.16l-.56 1.59c-1.88.2-3.47-1.09-4.38-2.62-.75.86-1.91 1.46-2.33 2.56.63 1.42 3.08 1.93 2.67 3.87-.67 1.27-1.92 2.17-2.34 3.61.47.59 1.41 1.77 1.88 2.35l-1.05.48c-1.63-.34-4.05-.18-4.62-2.19-1.32-3.83-1.52-8.15-4.35-11.3l.44-1.37c.98-.97 2.01-1.9 3.02-2.83 1.17 2.23 3.46.75 3.15-1.34zm51.46 7.55c2.17.12 4.37.27 6.45.96l.38.76c.93-.42 2.26-.6 1.89-2.03 4.39 2.56 9.45 3.51 14.47 3.81-.01 1.46-.02 2.93-.02 4.39-4.44 2.94-10.39.82-14.59 4.29.44 1.12 1.1 2.17 1.27 3.38-.64 3.55-4.01 5.56-6.77 7.43.95 3.52-1.26 6.37-4.07 8.22-.01.01-.03.03-.05.04l.06.17.42 1.28c-.27.37-.81 1.1-1.08 1.47-.19.17-.59.5-.79.67-.73-.48-1.46-.96-2.17-1.45.39-.27 1.16-.79 1.55-1.05-.51-.06-1.54-.17-2.05-.23-.96-2.43-3.03-4.11-5.33-5.22.74.91 1.51 1.79 2.21 2.72-1.95 2.14-3.17 4.76-2.71 7.71-1.44-2.32-2.24-4.93-3.36-7.4-2.27-1.67-5-2.53-7.62-3.47 1 1.53 2.33 2.79 3.74 3.93-1.44 1.25-2.89 2.48-4.36 3.69.49.16 1.47.47 1.97.62-1.66 3.07-4.27 5.86-4.19 9.56-.66 4.39-2.05 9.94-7.12 10.9-2.5-4.92-1.8-10.58-3.51-15.72l.48-.62c.21-.6.62-1.82.82-2.43l-.87-.76c.58-.43 1.75-1.29 2.33-1.72-.05-2.04-.08-4.07-.07-6.1 2.01-1.89 3.27-4.35 4.52-6.77-1.06.31-3.18.94-4.24 1.26 1.89-1.5 3.92-2.79 5.76-4.34a7.1 7.1 0 0 1 .99-3.31c1.41.91 2.82 1.85 4.19 2.83.19 2.31.65 4.91 2.51 6.5.31-.11.93-.33 1.24-.43-3.03-2.38-.06-6.58 3.16-6.6.59 2.79 2.85 4.54 5.04 6.1 1.19-2.06.86-3.77-.99-5.11 1.63-.66 3.25-1.37 4.88-2.02.68-1.72 2.16-4.37-.33-5.49l1.48-.59c-.44-.47-1.3-1.43-1.74-1.9 1.63.6 3.22 1.34 4.54 2.49-.2-.47-.61-1.43-.82-1.91 2.11-1.9 4.14-4 4.67-6.92-.54-.4-1.63-1.2-2.17-1.59m2.73 2.43c.54.54.54.54 0 0m-1.11 3.78c.63 2.31-1.11 3.82-2.69 5.14 3.58.76 3.33-3.31 4.78-5.23-.52.02-1.56.06-2.09.09m-7 13.18c.68.68.68.68 0 0m.22 1.82c-.37 1.24 1.55 2.37 2.6 1.95.33-1.2-1.53-2.68-2.6-1.95m-8.14.72c-.08 1.27.65 3.01 1.93 3.46 2.06-.76-.38-3.98-1.93-3.46m5.65 4.59c1.43-.11 2.65-2.04 2.16-3.36-1.6-.71-4.17 2.4-2.16 3.36m4.38.53l-.41.69 1.47 1.39c-.65.04-1.95.11-2.61.15-.15 3.38 3.03 1.49 3.76-.41-.56-.45-1.66-1.36-2.21-1.82M69.89 55.2c.95 1.22-.5 2.48.06 3.7 3.17.95 1.15-3.75 3.23-4.97-1.1.44-2.19.86-3.29 1.27zM8.93 27.15c1.56-.38 3.12-.78 4.7-1.08l.2.17c.22 2.51.12 5.15 1.52 7.36-1.42 1.15-2.83 2.3-4.25 3.45-2.48-2.73-2.69-6.42-2.17-9.9zm22.26 8.4c.95-2.47 3.36-5.26 6.33-4.52-1.29 1.42-2.65 2.76-4.05 4.07a12.3 12.3 0 0 0 5.34 3.06c.37-1.69.72-3.39 1.04-5.1 2.37 1.82 5.67 3 6.71 6.07.03 1.75-2.41 1.64-3.48 2.49.47.64.94 1.29 1.42 1.93-3.01 1.27-5 3.88-6.51 6.66-2.83-1.16-6.05-1.36-8.43-3.49-.14-1.48-1.09-2.13-2.56-2.06.39-.75 1.17-2.26 1.57-3.01-.73.46-2.18 1.37-2.91 1.82l-1.86-2.1c.28-1.15.71-2.25 1.27-3.3 1.27.02 2.55.02 3.82.02.27.55.81 1.67 1.08 2.23.34-1.6.04-3.47 1.22-4.77m-2.43 6.08c2.28.35 4.04 2.7 6.45 2.08-2.17-.34-4.33-3.45-6.45-2.08zm-1.15 12.54c-1.21-3.77-4.14-6.71-5.16-10.57 2.87 1.08 5.6 2.48 7.98 4.43-1.06 1.99-1.95 4.06-2.82 6.14zm15.12 7.74c4.11.88 6.07 4.76 9.19 7.15-.78 6.71-5.67 11.96-9.85 16.91-1.01 2-1.5 4.22-2.24 6.32-.32-.44-.95-1.32-1.26-1.76-.12-5.15 1.27-10.24 1.33-15.4-.69-1.85-2.28-3.17-3.54-4.63 2.63-2.52 3.41-6.36 6.37-8.59zm69.45 6.96c1.55 1.2 3.27 2.17 5.18 2.66-.34.28-1.02.85-1.35 1.13.35.11 1.07.31 1.43.42 3.21 1.64 2.85 6.48.41 8.72-2.66 1.2-3.6-2.53-5.66-3.38-1.68.75-3.24 1.72-4.83 2.63-.54-1.96-1.42-3.9-1.39-5.97.51-1.57 1.9-2.65 3.23-3.51.42-.34 1.26-1.01 1.68-1.35.33-.34.97-1.01 1.3-1.35zm-75.4-50.95l1.44-1.94c1.09 1.4 2.11 2.86 3.23 4.24-1.52.55-3.01 1.19-4.5 1.82l-2.64 1.02c-.05-1.48.39-2.74 1.31-3.77-.12-.56-.35-1.68-.47-2.24l1.37 1.26.26-.39zm33.94 9.28c.99-.2 3.94-2.54 2.5.08-.43 1.7 2.32 4.92-1.16 4.85-.1-1.73.05-3.63-1.34-4.93zm-2.77 12.22c-.74-1.55-2.28-2.91-.2-4.15.01.69.04 2.06.05 2.75l.92.1c.48 1.39 1.22 2.71 1.37 4.2-1.2-.52-1.7-1.78-2.14-2.9z"/><path fill="#666" opacity=".4" d="M62.14 18.82c1.37-.24 2.73-.51 4.09-.8-1.49.93-2.83 2.09-3.58 3.71-1.48.69-3.04 1.29-4.7 1.3l.56-1.59c1.73-.6 3.41-1.33 5.04-2.16l-1.41-.46z"/><path fill="#5d5d5d" opacity=".49" d="M104.23 24.23c.54.54.54.54 0 0z"/><path fill="#adadad" opacity=".68" d="M0 25.17l.57-.09.03.55-.6.15v-.61z"/><path fill="#cdcdcd" opacity=".8" d="M31.24 26.25c.54.51.54.51 0 0z"/><path opacity=".16" d="M39.43 25.95c2.29.94 4.14 2.55 5.39 4.68-.56.85-1.11 1.7-1.67 2.56-1.29-.42-2.58-.84-3.88-1.26.45-.77.88-1.54 1.31-2.32-.08-.1-.25-.3-.33-.4-.78-.39-2.33-1.17-3.11-1.56.57-.42 1.72-1.28 2.29-1.7z"/><path fill="#464646" opacity=".27" d="M59.88 31.24c.53.52.53.52 0 0z"/><path opacity=".19" d="M117.32 33.05c2.4-.95 1.51 3.15-.35 2.9-1.6-.3-.8-2.54.35-2.9z"/><path fill="#151515" opacity=".27" d="M72.01 35.35c1.03.02 1.85.5 2.47 1.44-.32 2.18-3.4-.03-2.47-1.44z"/><path fill="#d9d9d9" opacity=".88" d="M96.12 41.19c.68.68.68.68 0 0z"/><path opacity=".17" d="M111.13 41c.45.01 1.33.04 1.77.05-.8 2.08-1.12 5.28-4.05 5.18.61-.86 1.23-1.73 1.85-2.59.11-.66.33-1.98.43-2.64z"/><path fill="#a8a8a8" opacity=".68" d="M104.21 51.23c.64.61.64.61 0 0z"/><path fill="#e6e6e6" opacity=".9" d="M100.46 53.05c.02-.01.04-.03.05-.04l.01.21-.06-.17z"/><path opacity=".19" d="M114.19 65.49c1.19-.83 3.56.84 2.63 2.2-1.26 1-3.56-.78-2.63-2.2z"/><path opacity=".18" d="M77.9 72.24c.13-1.99-.76-5 2.31-4.67-.36 1.8.52 4.86-2.31 4.67z"/></svg>